<?xml version="1.0" encoding="utf-8"?>
<!-- Generator: Adobe Illustrator 19.2.1, SVG Export Plug-In . SVG Version: 6.00 Build 0)  -->
<svg version="1.1" id="Layer_1" xmlns="http://www.w3.org/2000/svg" xmlns:xlink="http://www.w3.org/1999/xlink" x="0px" y="0px"
	 viewBox="0 0 512 512" style="enable-background:new 0 0 512 512;" xml:space="preserve">
<style type="text/css">
	.st0{fill:#EE2E7C;}
</style>
<g>
	<g id="TabBar" transform="translate(-176.000000, -6.000000)">
		<g id="Group">
			<g id="Icon-ScheduleActive" transform="translate(176.000000, 6.000000)">
				<g id="Group-2">
					<path id="Page-1" class="st0" d="M128,352h32v-32h-32V352z M64,352h32v-32H64V352z M367.8,287.9c-8.8,0.1-15.9,7.4-15.8,16.2
						v0.1v63.7c0,8.8,7.2,16,16,16h57.2c8.8,0.1,16.1-6.9,16.2-15.8c0.1-8.8-6.9-16.1-15.8-16.2h-0.4H384v-47.7
						c0.1-8.8-6.9-16.1-15.7-16.3H367.8L367.8,287.9z M192,256v32h21.7c2.8-5.5,6.9-10.1,10.3-15.3V256H192z M128,288h32v-32h-32
						V288z M64,288h32v-32H64V288z M368,250.2c65.2,0,117.8,52.6,117.8,117.8S433.2,485.8,368,485.8S250.2,433.2,250.2,368
						S302.8,250.2,368,250.2L368,250.2z M368,224c-79.4,0-144,64.6-144,144s64.6,144,144,144s144-64.6,144-144S447.4,224,368,224
						L368,224z M256,192v32h16.7c5.2-3.4,9.8-7.4,15.3-10.3V192H256z M192,224h32v-32h-32V224z M128,224h32v-32h-32V224z M64,224h32
						v-32H64V224z M320.4,160h32v-32h-32V160z M256,160h32v-32h-32V160z M192,160h32v-32h-32V160z M128,160h32v-32h-32V160z M64,160
						h32v-32H64V160z"/>
				</g>
			</g>
		</g>
	</g>
	<path class="st0" d="M400,0H16C7.2,0,0,7.2,0,16v384c0,8.8,7.2,16,16,16h182.5c-3.6-10.1-5.2-21-6.4-32H32V96h352v96.1
		c11,1.3,21.9,2.8,32,6.4V16C416,7.2,408.8,0,400,0z M384,64H32V32h352V64z"/>
</g>
</svg>
