<?xml version="1.0" encoding="utf-8"?>
<!-- Generator: Adobe Illustrator 19.2.1, SVG Export Plug-In . SVG Version: 6.00 Build 0)  -->
<svg version="1.1" id="Layer_1" xmlns="http://www.w3.org/2000/svg" xmlns:xlink="http://www.w3.org/1999/xlink" x="0px" y="0px"
	 viewBox="0 0 512 512" style="enable-background:new 0 0 512 512;" xml:space="preserve">
<style type="text/css">
	.st0{filter:url(#Adobe_OpacityMaskFilter);}
	.st1{fill:#FFFFFF;}
	.st2{mask:url(#mask-2_1_);}
</style>
<g id="Clip-2">
</g>
<g id="Screens">
	<g id="EventDetails" transform="translate(-21.000000, -202.000000)">
		<g id="Icon-Attire" transform="translate(21.000000, 202.000000)">
			<g id="Page-1">
				<g id="Clip-2_1_">
				</g>
				<defs>
					<filter id="Adobe_OpacityMaskFilter" filterUnits="userSpaceOnUse" x="0" y="22.6" width="512" height="469.4">
						<feColorMatrix  type="matrix" values="1 0 0 0 0  0 1 0 0 0  0 0 1 0 0  0 0 0 1 0"/>
					</filter>
				</defs>
				<mask maskUnits="userSpaceOnUse" x="0" y="22.6" width="512" height="469.4" id="mask-2_1_">
					<g class="st0">
						<polygon id="path-1_1_" class="st1" points="512,492 512,22.6 0,22.6 0,492 						"/>
					</g>
				</mask>
				<path id="Fill-1" class="st2" d="M394.5,467.3H116.8V176c0-7-5.2-12.8-11.6-12.8s-11.6,5.7-11.6,12.8v30l-66.2-15.8l33.3-92.4
					C71.3,68.2,94.8,49,120.6,49h60.2c6.2,0,11.8,2.7,16.6,8.1l50.1,52.7c4.6,5.1,11.7,5.1,16.2,0.1l45.4-52.7
					c3.3-4.6,8.8-7.3,15.1-7.3h62.5c28.9,0,53.9,20.6,65.3,53.9l31.8,88.3l-65.5,12.9v-28.1c0-7-5.2-12.8-11.6-12.8
					c-6.4,0-11.6,5.7-11.6,12.8V217L394.5,467.3z M417.6,231.3l84.8-19.4c3.3-0.6,6.4-3,8.3-6.5c2-3.6,1.3-8,0.4-10.9l-37-102
					c-14.8-41.7-49.9-69.7-87.4-69.7h-62.5c-12.1,0-23.4,5.6-31.9,15.7L255,81.5l-41.4-43.8c-9.6-9.8-21-15-32.8-15h-60.2
					c-35.3,0-67.2,25.4-81.3,64.6L0.8,193.7c-1.1,2.9-1.2,7.5,0.5,10.7c1.9,3.5,4.9,5.9,8.1,6.5l85,19.5v248.8
					c0,7.1,5.2,12.8,11.6,12.8H406c6.4,0,11.6-5.7,11.6-12.8V231.3z"/>
			</g>
		</g>
	</g>
</g>
</svg>
