<?xml version="1.0" encoding="utf-8"?>
<!-- Generator: Adobe Illustrator 19.2.1, SVG Export Plug-In . SVG Version: 6.00 Build 0)  -->
<svg version="1.1" id="Layer_1" xmlns="http://www.w3.org/2000/svg" xmlns:xlink="http://www.w3.org/1999/xlink" x="0px" y="0px"
	 viewBox="0 0 512 512" style="enable-background:new 0 0 512 512;" xml:space="preserve">
<style type="text/css">
	.st0{fill:#0A94B2;}
</style>
<g id="Clip-2">
</g>
<g id="Symbols">
	<g id="TabBar" transform="translate(-306.000000, -6.000000)">
		<g id="Group">
			<g id="Icon-Map" transform="translate(306.000000, 6.000000)">
				<g id="Group-2">
					<path id="Fill-1" class="st0" d="M256,25.9c-86.8,0-157.4,70-157.4,156.1c0,75,120.9,239.7,157.4,287.7
						C292.4,421.8,413.4,257,413.4,182C413.4,95.9,342.8,25.9,256,25.9L256,25.9z M256,512l-10.3-13c-7.1-8.9-173.2-220.2-173.2-317
						C72.5,81.6,154.8,0,256,0c101.2,0,183.5,81.6,183.5,182c0,96.7-166.2,308-173.2,317L256,512z"/>
					<path id="Fill-3" class="st0" d="M256,100.4c-22.7,0-45.4,8.6-62.7,25.8c-34.6,34.4-34.6,90.1,0,124.5
						c17.3,17.2,40.1,25.8,62.8,25.8c22.7,0,45.4-8.6,62.7-25.8c34.6-34.4,34.6-90.1,0-124.5C301.4,109,278.7,100.4,256,100.4
						 M256,126.3L256,126.3c16.7,0,32.4,6.5,44.3,18.2c24.4,24.2,24.4,63.6,0,87.9c-11.8,11.7-27.5,18.2-44.3,18.2
						c-16.7,0-32.5-6.5-44.3-18.2c-24.4-24.2-24.4-63.6,0-87.8C223.6,132.7,239.3,126.3,256,126.3"/>
				</g>
			</g>
		</g>
	</g>
</g>
</svg>
