<?xml version="1.0" encoding="utf-8"?>
<!-- Generator: Adobe Illustrator 19.2.1, SVG Export Plug-In . SVG Version: 6.00 Build 0)  -->
<svg version="1.1" id="Layer_1" xmlns="http://www.w3.org/2000/svg" xmlns:xlink="http://www.w3.org/1999/xlink" x="0px" y="0px"
	 viewBox="0 0 512 512" style="enable-background:new 0 0 512 512;" xml:space="preserve">
<style type="text/css">
	.st0{fill:#010101;}
</style>
<g id="Clip-7">
</g>
<g>
	<path class="st0" d="M256,168.9c-8.7,0-15.8,7.2-15.8,16v84.6l-42.8,60.5c-5.1,7.2-3.5,17.2,3.6,22.3c2.8,2,6,3,9.2,3
		c4.9,0,9.7-2.3,12.8-6.7l45.8-64.7c1.9-2.7,3-6,3-9.3v-89.8C271.8,176.1,264.7,168.9,256,168.9z"/>
	<path class="st0" d="M55.5,117.9c31.1-44.1,76.3-74.8,127.2-86.3c8.5-1.9,13.9-10.5,12-19.1c-1.9-8.6-10.4-14.1-18.8-12.1
		c-58.5,13.3-110.3,48.4-146,98.9c-5.1,7.2-3.4,17.2,3.7,22.3c2.8,2,6,3,9.2,3C47.5,124.6,52.4,122.3,55.5,117.9z"/>
	<path class="st0" d="M482.2,99.3c-35.6-50.6-87.4-85.7-146-98.9c-8.6-1.9-16.9,3.5-18.8,12.1c-1.9,8.6,3.5,17.2,12,19.1
		c50.9,11.5,96.1,42.2,127.2,86.3c3.1,4.4,7.9,6.7,12.9,6.7c3.2,0,6.4-1,9.1-3C485.6,116.5,487.3,106.5,482.2,99.3z"/>
	<path class="st0" d="M462.7,273.8C462.7,158.3,370,64.3,256,64.3s-206.7,94-206.7,209.5c0,62.3,27,118.3,69.7,156.7l-31.4,57.8
		c-4.2,7.7-1.4,17.5,6.2,21.7c2.4,1.3,5,2,7.6,2c5.6,0,11-3,13.8-8.3l29.2-53.7c32.2,21,70.5,33.3,111.6,33.3
		c41.1,0,79.3-12.3,111.5-33.3l29.2,53.7c2.9,5.3,8.3,8.3,13.8,8.3c2.6,0,5.2-0.6,7.6-2c7.6-4.2,10.4-14,6.2-21.7L393,430.5
		C435.7,392.1,462.7,336.1,462.7,273.8z M80.9,273.8c0-97.9,78.6-177.5,175.1-177.5s175.1,79.6,175.1,177.5
		c0,97.9-78.6,177.5-175.1,177.5S80.9,371.7,80.9,273.8z"/>
</g>
</svg>
