<?xml version="1.0" encoding="UTF-8" standalone="no"?>
<svg width="25px" height="25px" viewBox="0 0 25 25" version="1.1" xmlns="http://www.w3.org/2000/svg" xmlns:xlink="http://www.w3.org/1999/xlink">
    <!-- Generator: sketchtool 3.8.3 (29802) - http://www.bohemiancoding.com/sketch -->
    <title>D8A3CEB6-6A88-4F93-A8CA-0115CDD5A703</title>
    <desc>Created with sketchtool.</desc>
    <defs></defs>
    <g id="Symbols" stroke="none" stroke-width="1" fill="none" fill-rule="evenodd">
        <g id="TabBar" transform="translate(-176.000000, -6.000000)" fill="#ED2A7B">
            <g id="Group">
                <g id="Icon-ScheduleActive" transform="translate(176.000000, 6.000000)">
                    <g id="Group-2">
                        <path d="M6.25,17.1875 L7.8125,17.1875 L7.8125,15.625 L6.25,15.625 L6.25,17.1875 Z M3.125,17.1875 L4.6875,17.1875 L4.6875,15.625 L3.125,15.625 L3.125,17.1875 Z M17.959375,14.059375 C17.528125,14.0640625 17.1828125,14.41875 17.1875,14.85 L17.1875,14.853125 L17.1875,17.965625 C17.1875,18.396875 17.5375,18.746875 17.96875,18.746875 L20.7609375,18.746875 C21.1921875,18.753125 21.546875,18.4078125 21.553125,17.9765625 C21.559375,17.5453125 21.2140625,17.190625 20.7828125,17.184375 L20.7609375,17.184375 L18.75,17.184375 L18.75,14.853125 C18.75625,14.421875 18.4125,14.065625 17.98125,14.059375 L17.959375,14.059375 L17.959375,14.059375 Z M9.375,12.5 L9.375,14.0625 L10.434375,14.0625 C10.5734375,13.79375 10.7703125,13.56875 10.9375,13.3171875 L10.9375,12.5 L9.375,12.5 Z M6.25,14.0625 L7.8125,14.0625 L7.8125,12.5 L6.25,12.5 L6.25,14.0625 Z M3.125,14.0625 L4.6875,14.0625 L4.6875,12.5 L3.125,12.5 L3.125,14.0625 Z M17.96875,12.215625 C21.1546875,12.215625 23.721875,14.7828125 23.721875,17.96875 C23.721875,21.1546875 21.1546875,23.721875 17.96875,23.721875 C14.7828125,23.721875 12.215625,21.1546875 12.215625,17.96875 C12.215625,14.7828125 14.7828125,12.215625 17.96875,12.215625 L17.96875,12.215625 Z M17.96875,10.9375 C14.0921875,10.9375 10.9375,14.0921875 10.9375,17.96875 C10.9375,21.8453125 14.0921875,25 17.96875,25 C21.8453125,25 25,21.8453125 25,17.96875 C25,14.0921875 21.8453125,10.9375 17.96875,10.9375 L17.96875,10.9375 Z M12.5,9.375 L12.5,10.9375 L13.3140625,10.9375 C13.565625,10.7703125 13.79375,10.575 14.0625,10.434375 L14.0625,9.375 L12.5,9.375 Z M9.375,10.9375 L10.9375,10.9375 L10.9375,9.375 L9.375,9.375 L9.375,10.9375 Z M6.25,10.9375 L7.8125,10.9375 L7.8125,9.375 L6.25,9.375 L6.25,10.9375 Z M3.125,10.9375 L4.6875,10.9375 L4.6875,9.375 L3.125,9.375 L3.125,10.9375 Z M15.64375,7.8125 L17.20625,7.8125 L17.20625,6.25 L15.64375,6.25 L15.64375,7.8125 Z M12.5,7.8125 L14.0625,7.8125 L14.0625,6.25 L12.5,6.25 L12.5,7.8125 Z M9.375,7.8125 L10.9375,7.8125 L10.9375,6.25 L9.375,6.25 L9.375,7.8125 Z M6.25,7.8125 L7.8125,7.8125 L7.8125,6.25 L6.25,6.25 L6.25,7.8125 Z M3.125,7.8125 L4.6875,7.8125 L4.6875,6.25 L3.125,6.25 L3.125,7.8125 Z M1.5625,3.125 L18.75,3.125 L18.75,1.5625 L1.5625,1.5625 L1.5625,3.125 Z M0.78125,0 C0.35,0 0,0.35 0,0.78125 L0,19.53125 C0,19.9625 0.35,20.3125 0.78125,20.3125 L9.6921875,20.3125 C9.515625,19.81875 9.440625,19.2875 9.378125,18.75 L1.5625,18.75 L1.5625,4.6875 L18.75,4.6875 L18.75,9.378125 C19.2875,9.440625 19.81875,9.5140625 20.3125,9.6921875 L20.3125,0.78125 C20.3125,0.35 19.9625,0 19.53125,0 L0.78125,0 Z" id="Page-1"></path>
                    </g>
                </g>
            </g>
        </g>
    </g>
</svg>