<?xml version="1.0" encoding="UTF-8" standalone="no"?>
<svg width="38px" height="52px" viewBox="0 0 38 52" version="1.1" xmlns="http://www.w3.org/2000/svg" xmlns:xlink="http://www.w3.org/1999/xlink">
    <!-- Generator: sketchtool 3.8.3 (29802) - http://www.bohemiancoding.com/sketch -->
    <title>80705929-EADF-4F7B-B73A-35747D8923B1</title>
    <desc>Created with sketchtool.</desc>
    <defs></defs>
    <g id="Screens" stroke="none" stroke-width="1" fill="none" fill-rule="evenodd">
        <g id="Map" transform="translate(-65.000000, -146.000000)" fill="#FFFFFF">
            <g id="Group-2" transform="translate(65.000000, 146.000000)">
                <path d="M19.1033499,10.0550489 C16.3291038,10.0550489 13.5516713,11.3572027 11.7715655,13.9636346 C9.78009864,16.8802042 9.77478806,20.8376471 11.757758,23.7595273 C13.5357396,26.3797666 16.3237932,27.6904174 19.1075984,27.6904174 C21.3624699,27.6904174 23.6173414,26.8301037 25.3411552,25.1073521 C28.7824099,21.662911 28.7802857,16.079369 25.3411552,12.6370521 C23.6173414,10.9164247 21.3603457,10.0550489 19.1033499,10.0550489 L19.1033499,10.0550489 Z M19.1033499,51.297 L18.0826567,49.9948462 C17.3795362,49.0984206 0.866824026,27.9283313 0.866824026,18.2365259 C0.866824026,8.18041481 9.04830095,0 19.1033499,0 C29.1605231,0 37.342,8.18041481 37.342,18.2365259 C37.342,27.9283313 20.8271636,49.0984206 20.124043,49.9948462 L19.1033499,51.297 Z" id="Icon-MapLink"></path>
            </g>
        </g>
    </g>
</svg>