<?xml version="1.0" encoding="UTF-8" standalone="no"?>
<svg width="18px" height="25px" viewBox="0 0 18 25" version="1.1" xmlns="http://www.w3.org/2000/svg" xmlns:xlink="http://www.w3.org/1999/xlink">
    <!-- Generator: sketchtool 3.8.3 (29802) - http://www.bohemiancoding.com/sketch -->
    <title>DFF49180-E4AB-4C21-8754-54D7BC0ED9DA</title>
    <desc>Created with sketchtool.</desc>
    <defs></defs>
    <g id="Symbols" stroke="none" stroke-width="1" fill="none" fill-rule="evenodd">
        <g id="TabBar" transform="translate(-306.000000, -6.000000)" fill="#0994B2">
            <g id="Group">
                <g id="Icon-Map" transform="translate(306.000000, 6.000000)">
                    <g id="Group-2">
                        <path d="M8.83028571,1.24642857 C4.65377143,1.24642857 1.2564,4.61734694 1.2564,8.76071429 C1.2564,12.3709184 7.07502857,20.297449 8.83028571,22.6056122 C10.5850286,20.2979592 16.4052,12.369898 16.4052,8.76071429 C16.4046857,4.61734694 13.0068,1.24642857 8.83028571,1.24642857 L8.83028571,1.24642857 Z M8.83028571,24.6413265 L8.33605714,24.0158163 C7.9956,23.5852041 0,13.4158163 0,8.76020408 C0,3.92959184 3.96154286,0 8.83028571,0 C13.7000571,0 17.6616,3.92959184 17.6616,8.76020408 C17.6616,13.4158163 9.66497143,23.5852041 9.32451429,24.0158163 L8.83028571,24.6413265 Z" id="Fill-1"></path>
                        <path d="M8.83028571,4.83010204 C7.73845714,4.83010204 6.6456,5.24336735 5.81194286,6.07040816 C4.14462857,7.725 4.14462857,10.4061224 5.81194286,12.0607143 C6.6456,12.8877551 7.73948571,13.3015306 8.83234286,13.3015306 C9.92417143,13.3015306 11.016,12.8882653 11.8506857,12.0607143 C13.5169714,10.4061224 13.5159429,7.72397959 11.8506857,6.07040816 C11.016,5.24387755 9.92314286,4.83010204 8.83028571,4.83010204 M8.83131429,6.07653061 L8.83131429,6.07653061 C9.63565714,6.07653061 10.3921714,6.3877551 10.962,6.95153061 C12.1361143,8.11734694 12.1361143,10.0142857 10.962,11.1795918 C10.3937143,11.7438776 9.63617143,12.055102 8.83234286,12.055102 C8.02697143,12.055102 7.26942857,11.7438776 6.70011429,11.1795918 C5.526,10.0137755 5.526,8.11734694 6.70011429,6.95204082 C7.26942857,6.3877551 8.02542857,6.07653061 8.83131429,6.07653061" id="Fill-3"></path>
                    </g>
                </g>
            </g>
        </g>
    </g>
</svg>