<?xml version="1.0" encoding="UTF-8" standalone="no"?>
<svg width="26px" height="24px" viewBox="0 0 26 24" version="1.1" xmlns="http://www.w3.org/2000/svg" xmlns:xlink="http://www.w3.org/1999/xlink">
    <!-- Generator: sketchtool 3.8.3 (29802) - http://www.bohemiancoding.com/sketch -->
    <title>6F82DF78-C176-4A1F-8FD5-83197B85BE7A</title>
    <desc>Created with sketchtool.</desc>
    <defs>
        <polygon id="path-1" points="25.7582388 23.6141571 25.7582388 4.28571428e-05 0 4.28571428e-05 0 23.6141571 25.7582388 23.6141571"></polygon>
    </defs>
    <g id="Screens" stroke="none" stroke-width="1" fill="none" fill-rule="evenodd">
        <g id="EventDetails" transform="translate(-21.000000, -202.000000)">
            <g id="Icon-Attire" transform="translate(21.000000, 202.000000)">
                <g id="Page-1">
                    <mask id="mask-2" fill="white">
                        <use xlink:href="#path-1"></use>
                    </mask>
                    <g id="Clip-2"></g>
                    <path d="M19.8450627,22.3713 L5.87491343,22.3713 L5.87491343,7.71415714 C5.87491343,7.35972857 5.61374925,7.0713 5.29282388,7.0713 C4.97189851,7.0713 4.71073433,7.35972857 4.71073433,7.71415714 L4.71073433,9.22272857 L1.38001791,8.4273 L3.05604776,3.77772857 C3.58652537,2.29058571 4.76933134,1.32844286 6.06894328,1.32844286 L9.09580896,1.32844286 C9.40664478,1.32844286 9.68798806,1.46515714 9.93168955,1.7343 L12.4505851,4.38801429 C12.684197,4.64558571 13.0388836,4.64215714 13.2662866,4.39101429 L15.5519582,1.73772857 C15.7188239,1.5063 15.9931821,1.3713 16.3137194,1.3713 L19.457003,1.3713 C20.9110627,1.3713 22.1699284,2.40972857 22.7430925,4.08158571 L24.3434507,8.52201429 L21.0480478,9.17001429 L21.0480478,7.75701429 C21.0480478,7.40258571 20.7868836,7.11415714 20.4659582,7.11415714 C20.1446448,7.11415714 19.8838687,7.40258571 19.8838687,7.75701429 L19.8838687,9.77901429 L19.8450627,22.3713 Z M21.0092418,10.4968714 L25.2771224,9.51887143 C25.4455403,9.48758571 25.5984358,9.36544286 25.6935104,9.18972857 C25.7928537,9.00672857 25.7598687,8.78944286 25.7144657,8.63901429 L23.8552716,3.50687143 C23.1105851,1.40901429 21.3429731,-0.000128571428 19.457003,-0.000128571428 L16.3137194,-0.000128571428 C15.7044657,-0.000128571428 15.134794,0.280157143 14.7102567,0.788014286 L12.827003,2.96044286 L10.7466149,0.754585714 C10.2630925,0.262157143 9.69109254,-0.000128571428 9.09580896,-0.000128571428 L6.06894328,-0.000128571428 C4.29318209,-0.000128571428 2.68855522,1.27572857 1.98073433,3.25015714 L0.0400477612,8.60815714 C-0.0131164179,8.75515714 -0.0216537313,8.98744286 0.0652716418,9.14687143 C0.160346269,9.32258571 0.313241791,9.44472857 0.473898507,9.4743 L4.7495403,10.4544429 L4.7495403,22.9713 C4.7495403,23.3261571 5.01070448,23.6141571 5.33162985,23.6141571 L20.4271522,23.6141571 C20.7480776,23.6141571 21.0092418,23.3261571 21.0092418,22.9713 L21.0092418,10.4968714 Z" id="Fill-1" fill="#FFFFFF" mask="url(#mask-2)"></path>
                </g>
            </g>
        </g>
    </g>
</svg>