<?xml version="1.0" encoding="utf-8"?>
<!-- Generator: Adobe Illustrator 19.2.1, SVG Export Plug-In . SVG Version: 6.00 Build 0)  -->
<svg version="1.1" id="Layer_1" xmlns="http://www.w3.org/2000/svg" xmlns:xlink="http://www.w3.org/1999/xlink" x="0px" y="0px"
	 viewBox="0 0 512 512" style="enable-background:new 0 0 512 512;" xml:space="preserve">
<style type="text/css">
	.st0{fill:#0A94B2;}
</style>
<g id="Clip-2">
</g>
<path class="st0" d="M386.7,224.9c-3.3,0-6.5,0.4-9.7,1.2c-2.7,0.7-5.3,1.6-7.8,2.9v-10.4c0-22.7-18-41.2-40.2-41.2
	c-3.3,0-6.5,0.4-9.7,1.2c-3,0.8-5.9,1.9-8.6,3.3c-3.7-18.8-20-33-39.4-33c-3.3,0-6.5,0.4-9.7,1.2c-2.7,0.7-5.3,1.6-7.8,2.9V41.2
	c0-22.7-18-41.2-40.2-41.2c-3.3,0-6.5,0.4-9.7,1.2c-17.9,4.4-30.5,21.3-30.5,41v4.3c-5.6-6-12.4-11.5-20.3-15.7
	c-11.2-6.1-23.4-9.5-34.3-9.5c-14.3,0-25.4,5.7-30.6,15.8c-4.9,9.4-3.8,21.5,3.2,33c4.1,6.7,10,13,17.1,18.4
	c-18.6,14-27.3,33.7-20.2,49c5.1,10.9,16.9,17.2,32.4,17.2c10.4,0,21.5-2.8,32.2-8c7.9-3.9,14.8-8.9,20.6-14.5v95.6
	c-8.1-10.8-20.9-17.6-35.1-17.6c-2.3,0-4.7,0.2-7,0.6c-11.6,1.8-21.9,8.2-28.9,18c-7,9.8-9.9,21.9-8,33.9
	c14.7,88.1,18.2,108.2,19.3,113.8l0,0C129.2,456.2,193.9,512,270.8,512c5.1,0,10.2-0.2,15.3-0.7c79-7.5,140.8-78.8,140.8-162.3
	v-82.9C426.9,243.4,408.9,224.9,386.7,224.9z M107.9,59.5c-3.1-5.2-4.1-10.1-2.6-13c1.7-3.2,6.7-5.1,13.3-5.1
	c7.7,0,16.6,2.5,25.1,7.1c8.9,4.8,16.4,11.6,20.5,18.5c1.5,2.5,2.5,4.9,2.9,7.1c-4-1.2-8.5-1.9-13.3-1.9c-8.4,0-17.3,1.9-26.1,5.4
	C119.2,72.8,112,66.3,107.9,59.5z M165.5,110.9c-4.5,6.7-12.2,13.1-21.3,17.6c-8,3.9-16.4,6-23.7,6c-7.4,0-13.1-2.2-14.7-5.8
	c-2.9-6.2,5.2-21.1,24.4-30.5c8-3.9,16.4-6,23.7-6c7.4,0,13.1,2.2,14.7,5.8C170,101,168.9,105.9,165.5,110.9z M194.8,42.2
	c0-9.9,4.2-17.1,13.5-19.4c1.7-0.4,3.5-0.6,5.1-0.6c11.4,0,18.3,7.4,18.3,19v23.2h-36.9V42.2z M194.3,84.4h37.2v17.8h-37.2V84.4z
	 M403.5,349.2c0,72.5-48.7,130.7-119.1,137.5c-4.5,0.4-9.1,0.6-13.5,0.6c-68.6,0-119.2-46-132.7-114.9
	c-0.4-1.3-20.8-114.7-20.8-114.7c-2.1-13.9,7.9-24.6,17-25.3c1.3-0.2,2.6-0.3,3.9-0.3c11.9,0,20.2,7.6,22.1,20l11.6,67.5
	c0.8,5,7.5,9.4,12.5,9.4c5.6,0,12.3-5.1,12.3-10.8L195,122.3h36.5V247c0,4.7,6.3,8.4,10.9,8.4c4.6,0,10-3.8,10-8.4v-55.9
	c0-9.9,4.4-19.2,13.8-21.5c1.7-0.4,3.5-0.6,5.1-0.6c11.4,0,18.6,9.5,18.6,21.1v73.8c0,4.7,5.8,8.4,10.3,8.4s10.5-3.8,10.5-8.4v-44.3
	c0-9.9,3.9-19.2,13.2-21.5c1.7-0.4,3.5-0.6,5.1-0.6c11.4,0,18.3,9.5,18.3,21.1v62.2c0,4.7,6,8.4,10.6,8.4c4.6,0,9.5-3.4,9.5-8.1
	l0.8-14c0-9.9,4.1-19.2,13.5-21.5c1.7-0.4,3.5-0.6,5.1-0.6c11.4,0,18.1,9.5,18.1,21.1L403.5,349.2z"/>
</svg>
