<?xml version="1.0" encoding="UTF-8" standalone="no"?>
<svg width="17px" height="25px" viewBox="0 0 17 25" version="1.1" xmlns="http://www.w3.org/2000/svg" xmlns:xlink="http://www.w3.org/1999/xlink">
    <!-- Generator: sketchtool 3.8.3 (29802) - http://www.bohemiancoding.com/sketch -->
    <title>EEF42A23-0DCE-488F-998B-464F183A9A27</title>
    <desc>Created with sketchtool.</desc>
    <defs>
        <polygon id="path-1" points="8.34573273 24.9977848 0 24.9977848 0 4.49710592e-15 8.34573273 4.49710592e-15 16.6914655 0 16.6914655 24.9977848 8.34573273 24.9977848"></polygon>
    </defs>
    <g id="Symbols" stroke="none" stroke-width="1" fill="none" fill-rule="evenodd">
        <g id="TabBar" transform="translate(-51.000000, -6.000000)">
            <g id="Group">
                <g id="Icon-Reminders" transform="translate(51.000000, 6.000000)">
                    <g id="Group-2">
                        <mask id="mask-2" fill="white">
                            <use xlink:href="#path-1"></use>
                        </mask>
                        <g id="Clip-2"></g>
                        <path d="M15.5453564,17.0484177 C15.5453564,20.5857595 13.1684473,23.4300633 9.72826545,23.7598101 C9.50633818,23.7810127 9.28626545,23.7914557 9.06897455,23.7914557 C5.71997455,23.7914557 3.25126545,21.5446203 2.58919273,18.1800633 C2.56910182,18.1183544 1.57197455,12.578481 1.57197455,12.578481 C1.46719273,11.9022152 1.95833818,11.378481 2.40219273,11.3414557 C2.46586545,11.3310127 2.52953818,11.3259494 2.59228364,11.3259494 C3.17461091,11.3259494 3.57642909,11.6946203 3.67101091,12.3015823 L4.23695636,15.5971519 C4.27435636,15.8427215 4.60384727,16.0556962 4.84679273,16.0556962 C5.11879273,16.0556962 5.44828364,15.806962 5.44828364,15.528481 L5.36544727,5.97151899 L7.14828364,5.97151899 L7.14828364,12.0591772 C7.14828364,12.2870253 7.45644727,12.471519 7.67899273,12.471519 C7.90153818,12.471519 8.16581091,12.2870253 8.16581091,12.0591772 L8.16581091,9.32879747 C8.16581091,8.8471519 8.38062909,8.39208861 8.83808364,8.27911392 C8.92308364,8.25791139 9.00715636,8.24810127 9.08875636,8.24810127 C9.64450182,8.24810127 9.99470182,8.70981013 9.99470182,9.27911392 L9.99470182,12.8841772 C9.99470182,13.1120253 10.2759745,13.296519 10.49852,13.296519 C10.7210655,13.296519 11.01192,13.1120253 11.01192,12.8841772 L11.01192,10.7224684 C11.01192,10.2408228 11.2001564,9.78575949 11.6576109,9.67278481 C11.7426109,9.65158228 11.8266836,9.64177215 11.9082836,9.64177215 C12.4640291,9.64177215 12.8021745,10.103481 12.8021745,10.6727848 L12.8021745,13.7091772 C12.8021745,13.9370253 13.0955018,14.121519 13.3180473,14.121519 C13.5405927,14.121519 13.7810655,13.953481 13.7810655,13.7256329 L13.8197018,13.0408228 C13.8197018,12.5591772 14.0196836,12.1041139 14.4771382,11.9911392 C14.5621382,11.9699367 14.6462109,11.9601266 14.7278109,11.9601266 C15.2835564,11.9601266 15.6096473,12.4218354 15.6096473,12.9911392 L15.5453564,17.0484177 L15.5453564,17.0484177 Z M5.33237455,4.99208861 L7.14828364,4.99208861 L7.14828364,4.12151899 L5.33237455,4.12151899 L5.33237455,4.99208861 Z M5.35833818,2.06012658 C5.35833818,1.57848101 5.56110182,1.22468354 6.01855636,1.11170886 C6.10355636,1.09050633 6.18762909,1.0806962 6.26922909,1.0806962 C6.82497455,1.0806962 7.16126545,1.4414557 7.16126545,2.01044304 L7.16126545,3.14240506 L5.35833818,3.14240506 L5.35833818,2.06012658 Z M3.92879273,5.41518987 C3.71150182,5.74367089 3.33255636,6.05632911 2.88901091,6.27278481 C2.50079273,6.46234177 2.08908364,6.56708861 1.72992,6.56708861 C1.36704727,6.56708861 1.09195636,6.45981013 1.01097455,6.28607595 C0.870956364,5.98575949 1.26535636,5.25759494 2.20190182,4.79936709 C2.59042909,4.60981013 3.00213818,4.50506329 3.36130182,4.50506329 C3.72417455,4.50506329 3.99957455,4.61297468 4.08055636,4.78639241 C4.14917455,4.93322785 4.09261091,5.16867089 3.92879273,5.41518987 L3.92879273,5.41518987 Z M1.11606545,2.90506329 C0.963065455,2.65126582 0.916701818,2.41392405 0.991501818,2.26993671 C1.07310182,2.11297468 1.31635636,2.01962025 1.64244727,2.01962025 C2.02046545,2.01962025 2.45504727,2.14303797 2.86675636,2.36740506 C3.30041091,2.60348101 3.66575636,2.93291139 3.86913818,3.27056962 C3.94270182,3.39303797 3.99030182,3.51075949 4.01286545,3.61677215 C3.81566545,3.55917722 3.59868364,3.52594937 3.36130182,3.52594937 C2.95082909,3.52594937 2.51593818,3.61898734 2.08722909,3.78892405 C1.66810182,3.55443038 1.31450182,3.23481013 1.11606545,2.90506329 L1.11606545,2.90506329 Z M14.72812,10.9800633 C14.5692473,10.9800633 14.4091382,10.9996835 14.2524291,11.0386076 C14.1192109,11.071519 13.9918655,11.1186709 13.8719382,11.1781646 L13.8719382,10.6724684 C13.8719382,9.56392405 12.9910291,8.66202532 11.9082836,8.66202532 C11.7494109,8.66202532 11.5893018,8.68164557 11.4325927,8.72056962 C11.2848473,8.75727848 11.14452,8.81107595 11.0134655,8.88006329 C10.8320291,7.96202532 10.0379745,7.26867089 9.08875636,7.26867089 C8.92988364,7.26867089 8.76977455,7.28829114 8.61306545,7.32721519 C8.47984727,7.36012658 8.35250182,7.40727848 8.23257455,7.46677215 L8.23257455,2.01044304 C8.23257455,0.901898734 7.35166545,0 6.26892,0 C6.11004727,0 5.94993818,0.0196202532 5.79322909,0.0585443038 C4.91726545,0.275316456 4.30526545,1.09873418 4.30526545,2.06012658 L4.30526545,2.27151899 C4.03357455,1.97816456 3.70006545,1.71234177 3.31617455,1.5028481 C2.76877455,1.20443038 2.17408364,1.04018987 1.64213818,1.04018987 C0.945756364,1.04018987 0.400829091,1.32056962 0.146447273,1.80949367 C-0.0934072727,2.27056962 -0.0368436364,2.85696203 0.301301818,3.41835443 C0.499429091,3.74746835 0.788738182,4.05316456 1.13430182,4.31677215 C0.225574545,5.00063291 -0.200661818,5.96107595 0.147374545,6.70791139 C0.395574545,7.24050633 0.972338182,7.54588608 1.72961091,7.54588608 C2.23528364,7.54588608 2.77866545,7.41107595 3.30041091,7.15601266 C3.68553818,6.96803797 4.02399273,6.72278481 4.30495636,6.44873418 L4.30495636,11.1151899 C3.90746545,10.5863924 3.28557455,10.2553797 2.59166545,10.2553797 C2.47822909,10.2553797 2.36355636,10.264557 2.25104727,10.2832278 C1.68541091,10.371519 1.18190182,10.6844937 0.840047273,11.1629747 C0.497574545,11.6427215 0.359101818,12.2306962 0.449974545,12.818038 C1.16861091,17.1183544 1.33675636,18.1028481 1.39053818,18.3721519 L1.38837455,18.3724684 C2.15584727,22.2734177 5.31413818,24.9977848 9.06835636,24.9977848 C9.31593818,24.9977848 9.56753818,24.9857595 9.81666545,24.9617089 C13.6719564,24.5936709 16.6914655,21.1126582 16.6914655,17.0382911 L16.6914655,12.9901899 C16.6914655,11.881962 15.8105564,10.9800633 14.72812,10.9800633 L14.72812,10.9800633 Z" id="Fill-1" fill="#0994B2" mask="url(#mask-2)"></path>
                    </g>
                </g>
            </g>
        </g>
    </g>
</svg>