<?xml version="1.0" encoding="UTF-8" standalone="no"?>
<svg width="22px" height="25px" viewBox="0 0 22 25" version="1.1" xmlns="http://www.w3.org/2000/svg" xmlns:xlink="http://www.w3.org/1999/xlink">
    <!-- Generator: sketchtool 3.8.3 (29802) - http://www.bohemiancoding.com/sketch -->
    <title>A581134B-B020-4A38-8658-0085765FB3B1</title>
    <desc>Created with sketchtool.</desc>
    <defs>
        <polygon id="path-1" points="8.119 6.24695946 8.119 0.324543514 0.126642159 0.324543514 0.126642159 6.24695946 8.119 6.24695946"></polygon>
    </defs>
    <g id="Screens" stroke="none" stroke-width="1" fill="none" fill-rule="evenodd">
        <g id="EventDetails" transform="translate(-23.000000, -136.000000)">
            <g id="Icon-Time" transform="translate(23.000000, 136.000000)">
                <g id="Group-3">
                    <g id="Page-1">
                        <path d="M8.71706667,17.232973 C8.56573333,17.232973 8.41273333,17.1863514 8.2804,17.0900676 C7.9434,16.845473 7.8664,16.3708108 8.10806667,16.0289189 L10.1440667,13.1508784 L10.1440667,9.12891892 C10.1440667,8.70932432 10.4800667,8.36878378 10.8940667,8.36878378 C11.3080667,8.36878378 11.6440667,8.70932432 11.6440667,9.12891892 L11.6440667,13.3958108 C11.6440667,13.5549324 11.5954,13.71 11.5034,13.8387162 L9.32673333,16.9147297 C9.1804,17.1221622 8.9504,17.232973 8.71706667,17.232973" id="Fill-1" fill="#FFFFFF"></path>
                        <g id="Group-5" transform="translate(0.000000, 0.014054)" fill="#FFFFFF">
                            <path d="M0.7497,6.24695946 C0.5987,6.24695946 0.446366667,6.20101351 0.314033333,6.10540541 C-0.0229666667,5.86081081 -0.100966667,5.38648649 0.1397,5.04493243 C1.83403333,2.64290541 4.29803333,0.972635135 7.0787,0.342567568 C7.48203333,0.25 7.88403333,0.508783784 7.97436667,0.918581081 C8.0647,1.32837838 7.81036667,1.7347973 7.40603333,1.82635135 C4.9867,2.37466216 2.8397,3.83175676 1.3607,5.92905405 C1.21403333,6.13682432 0.983366667,6.24695946 0.7497,6.24695946" id="Fill-3"></path>
                        </g>
                        <g id="Group-8" transform="translate(13.666667, 0.014054)">
                            <mask id="mask-2" fill="white">
                                <use xlink:href="#path-1"></use>
                            </mask>
                            <g id="Clip-7"></g>
                            <path d="M7.37006667,6.24695946 C7.13573333,6.24695946 6.90473333,6.13614865 6.75873333,5.92837838 C5.28073333,3.83108108 3.1344,2.37398649 0.7134,1.82635135 C0.309066667,1.7347973 0.0540666667,1.32837838 0.145066667,0.918581081 C0.2354,0.509459459 0.6314,0.252364865 1.04073333,0.342567568 C3.8234,0.971959459 6.28673333,2.64222973 7.97906667,5.04527027 C8.2204,5.38682432 8.14206667,5.86148649 7.8044,6.10540541 C7.6724,6.20101351 7.52006667,6.24695946 7.37006667,6.24695946" id="Fill-6" fill="#FFFFFF" mask="url(#mask-2)"></path>
                        </g>
                        <path d="M10.8940333,4.91506757 C6.3037,4.91506757 2.5687,8.70054054 2.5687,13.3529054 C2.5687,18.0052703 6.3037,21.7910811 10.8940333,21.7910811 C15.4843667,21.7910811 19.2190333,18.0056081 19.2190333,13.3529054 C19.2190333,8.7002027 15.4843667,4.91506757 10.8940333,4.91506757 M10.8940333,23.3110135 C5.4767,23.3110135 1.0687,18.8427703 1.0687,13.3522297 C1.0687,7.86135135 5.47636667,3.39412162 10.8940333,3.39412162 C16.3117,3.39412162 20.7190333,7.86168919 20.7190333,13.3525676 C20.7190333,18.8434459 16.3117,23.3110135 10.8940333,23.3110135" id="Fill-9" fill="#FFFFFF"></path>
                        <path d="M3.54636667,24.6762162 C3.4237,24.6762162 3.2997,24.6451351 3.18503333,24.5812838 C2.82236667,24.3792568 2.69003333,23.9167568 2.89003333,23.5485135 L4.67703333,20.2610135 C4.87636667,19.8937838 5.33436667,19.7603378 5.6957,19.9616892 C6.05836667,20.1650676 6.1907,20.6272297 5.9907,20.9944595 L4.2037,24.2822973 C4.06736667,24.5339865 3.8107,24.6762162 3.54636667,24.6762162" id="Fill-11" fill="#FFFFFF"></path>
                        <path d="M18.2414,24.6762162 C17.9767333,24.6762162 17.7204,24.5336486 17.5840667,24.2822973 L15.7970667,20.9944595 C15.5964,20.6272297 15.7287333,20.1650676 16.0920667,19.9616892 C16.4534,19.7586486 16.9117333,19.8924324 17.1110667,20.2610135 L18.8980667,23.5485135 C19.0984,23.9167568 18.9650667,24.3792568 18.6027333,24.5812838 C18.4874,24.645473 18.3634,24.6762162 18.2414,24.6762162" id="Fill-13" fill="#FFFFFF"></path>
                    </g>
                </g>
            </g>
        </g>
    </g>
</svg>